<svg xmlns="http://www.w3.org/2000/svg" viewBox="0 0 640 480" width="640" height="480" fill="none">
  <title>Abstract illustrated sample avatar — Theo Park</title>
  <desc>Original geometric illustration of a fictional profile, not a photograph or likeness of a real person.</desc>
  <defs>
    <pattern id="grid" width="32" height="32" patternUnits="userSpaceOnUse"><path d="M32 0H0V32" stroke="#435960" stroke-opacity=".08" stroke-width=".75"/></pattern>
    <clipPath id="frame"><rect width="640" height="480" rx="4"/></clipPath>
  </defs>
  <g clip-path="url(#frame)">
    <path fill="#c4cdd0" d="M0 0H640V480H0z"/>
    <path fill="url(#grid)" d="M0 0H640V480H0z"/>
    <path fill="#e4eaeb" d="M98 480V252a225 225 0 0 1 450 0v228Z"/>
    <path stroke="#435960" stroke-opacity=".25" d="M122 480V252a201 201 0 0 1 402 0v228M78 404h484M78 84h484"/>
    <circle cx="508" cy="102" r="24" fill="#7d9399" fill-opacity=".45"/>
    <path d="M299 257H350V323L324 346L299 323Z" fill="#7d9399"/>
    <path d="M214 349L275 298L324 322L374 298L435 349V480H214Z" fill="#435960"/>
    <path d="M272 173Q273 130 324 130Q375 130 377 173V223Q375 277 326 292Q274 277 272 223Z" fill="#7d9399"/>
    <path d="M324 144Q375 140 377 173V223Q375 277 326 292V241L342 227L324 193Z" fill="#c4cdd0"/>
    <path d="M244 181V145L281 112L324 102L391 133V180L337 158L286 169L272 207Z" fill="#435960"/>
    <path d="M287 209H303M345 209H360" stroke="#435960" stroke-width="3" stroke-linecap="round"/>
    <path d="M314 255Q325 261 337 253" stroke="#435960" stroke-width="2" stroke-linecap="round"/>
    <path d="M274 315L324 365L375 315M324 365V480" stroke="#e4eaeb" stroke-opacity=".35"/>
    <path d="M205 399H245M399 399H440" stroke="#e4eaeb" stroke-opacity=".4"/>
    <path d="M40 40H58M40 40V58M582 440H600V422M40 440H58M40 440V422M582 40H600V58" stroke="#435960" stroke-opacity=".5"/>
    <path d="M64 346V402M72 370V402M80 386V402" stroke="#7d9399" stroke-width="2"/>
  </g>
</svg>
